<svg xmlns="http://www.w3.org/2000/svg" viewBox="0 0 60.96 85.84"><defs><style>.cls-1{fill:#607027;}</style></defs><g id="Layer_2" data-name="Layer 2"><g id="Layer_1-2" data-name="Layer 1"><path class="cls-1" d="M59.83,58.68a11.28,11.28,0,0,0-7.62-.45A4.5,4.5,0,0,0,49,61a1.9,1.9,0,0,1-1.69,1.35c-.54.08-1.09.09-2,.16,0,0,.51-1.83.58-2a12.65,12.65,0,0,1,.88-2,14.7,14.7,0,0,1,1.5-2.17,10.27,10.27,0,0,1,1.45-1.87,12.91,12.91,0,0,1,1.54-.75,15.33,15.33,0,0,0,5-4c1.52-2,1.81-4.54,1.8-7,0-.85,0-1.7,0-2.55a2.61,2.61,0,0,0-.45-1.66,1.79,1.79,0,0,0-1.4-.61c-1.78,0-2.66,1.81-3.6,3a48.91,48.91,0,0,0-3.18,4.42A10.46,10.46,0,0,0,48,48.94a10.11,10.11,0,0,0-.05,2c0,.67-.06,1.35,0,2a4.61,4.61,0,0,1-.6,2.4,29,29,0,0,0-3,6.74,25.87,25.87,0,0,0-.72,4.1c-.06.5,0,4.3-1,4a.62.62,0,0,1-.34-.3,3.83,3.83,0,0,1-.4-1.15c-.52-2.36-1.21-4.66-1.76-7a42.49,42.49,0,0,1-1-6.64,21.84,21.84,0,0,0-1.19-6.18c-2.2-5.87-1.7-11.88-1.08-17.89.11-1.14.53-2.22.72-3.34a19.86,19.86,0,0,1,1-4.58c.29-.72.6-1.42.91-2.12l.46-1c.09-.2.22-.68.4-.82a.6.6,0,0,1,.19-.06,5.37,5.37,0,0,1,3,.09,3.18,3.18,0,0,1,1.15.8,2.42,2.42,0,0,0,1.08.82,1,1,0,0,0,.82-.17c.69-.5.41-1.52.87-2.15a4.18,4.18,0,0,0,.7-1.93c.11-.93,0-1.87,0-2.8a1.5,1.5,0,0,0-.16-.81,1.7,1.7,0,0,0-1.2-.65c-.4-.07-.79-.17-1.18-.26a.24.24,0,0,1-.11-.06.25.25,0,0,1,0-.09c-.15-.63.09-1.26-.16-1.9A2.59,2.59,0,0,0,44,8.67a5,5,0,0,1-1.57-1.3c-.24-.29-.1-.33.18-.54a7.4,7.4,0,0,1,3.89-1.56,2.4,2.4,0,0,1,2.1.7,3.51,3.51,0,0,0,1.47.73c1,.3,1.11-1.27.64-1.81a2.42,2.42,0,0,0-1-.62,7.07,7.07,0,0,0-5.34.36c-.76.35-1.46.82-2.19,1.23-.51.29-1.63,1-2.24.82-.17,0-.31-.48-.35-.64A9.06,9.06,0,0,0,37,2a11,11,0,0,0-1.9-1.5A4.29,4.29,0,0,0,32.58,0,.81.81,0,0,0,32,1.38a2,2,0,0,0,2.18.91A2.69,2.69,0,0,1,37,3.62a9.18,9.18,0,0,1,1,1.66.92.92,0,0,1,.1.36c0,.33-.59.71-.84.88a3.57,3.57,0,0,1-1.25.58c-.44-.33-.87-.69-1.34-1a4.15,4.15,0,0,0-2.83-.58c-.76.09-1.11.75-1.52,1.34a2.26,2.26,0,0,1-1.08.94c-1.4.37-1.68,1.6-2.19,2.64a1.08,1.08,0,0,0,.29,1.34l1.45,1.4c-.47.34-.81.59-1.16.82a4.58,4.58,0,0,0-1.85,2.45,7.07,7.07,0,0,0-.28,3.26,1.45,1.45,0,0,0,.57.94,2.07,2.07,0,0,0,.92.25,6.62,6.62,0,0,0,4.43-.75c.33-.23.63-.52,1-.72a1.6,1.6,0,0,1,1.07-.22c.33.06.47.38.6.71.52,1.3.94,2.65,1.55,3.9a7.46,7.46,0,0,1,.83,3.67c0,1.06-.29,2.12-.44,3.18s-.29,2.21-.39,3.33a55.31,55.31,0,0,0-.18,6.69c0,.27,0,.54,0,.8a8.6,8.6,0,0,1-.1,1.22c-1.54-.38-1.71-.53-1.87-1.65-.09-.62-.14-1.25-.27-1.87a5.15,5.15,0,0,0-2.3-3.37c-.88-.56-1.79-1.07-2.68-1.63-.5-.31-1.05-.25-.94.46.13.91,0,1.83.15,2.73a6.69,6.69,0,0,0,1,2.37c.63.93,1.86,2.57,3,2.9a6.63,6.63,0,0,0,.89.16,6.55,6.55,0,0,1,2.92,1.54,2.64,2.64,0,0,1,1,1.57c.66,2.72,1.45,5.42,1.86,8.19s.8,5.68,1.47,8.5c1,4.24,2.39,8.58,2.39,13,0,.9-.15,1.79-.18,2.69,0,.46.12,1.36-.26,1.72s-.41-.28-.51-.51-.29-.69-.42-1c-1.23-3.21-2.36-6.45-3.7-9.62a25.74,25.74,0,0,0-9.35-11.55c-.18-.13-.38-.25-.57-.37a16.23,16.23,0,0,1-6.7-7.35c-.86-2-2-4-2.27-6.27a11.87,11.87,0,0,1,.39-3.5c.23-1.25.5-2.5.79-3.74.23-1,1.1-1.31,2.17-1a9.66,9.66,0,0,0,1,.34A2.53,2.53,0,0,0,25,33.91a2,2,0,0,0-.87-2.55,6,6,0,0,0-.83-.51c-.17-.1-.7-.26-.76-.46a.36.36,0,0,1,0-.23L22.89,28c.14-.9.25-1.78-.71-2.26a4.67,4.67,0,0,0-3.05-.55c-1.15.23-2.31.41-3.47.61a2.91,2.91,0,0,0-2.06,1.35c-.21.33-.23.86-.9.75A1.57,1.57,0,0,1,12.48,26a2.87,2.87,0,0,1,1.18-1.14A4.07,4.07,0,0,0,15.55,23a1.56,1.56,0,0,0,0-1c-.14-.48-.61-.54-1-.55-1,0-1.52.94-2,1.63-.76,1.08-.95,2.42-1.72,3.47a.13.13,0,0,1-.07.06s-.06,0-.09,0a11.62,11.62,0,0,1-1.13-.53A16.63,16.63,0,0,0,3,24.42,2.94,2.94,0,0,0,.21,25.84a1.17,1.17,0,0,0-.06,1.23,1.24,1.24,0,0,0,.45.37c1.79.95,3.62-.32,5.12-1.21.56-.33.84-.2,1.41,0a10.79,10.79,0,0,1,1.62.66c.15.08,1.5,1,1.52,1a7.27,7.27,0,0,0-1.54,1,12.34,12.34,0,0,1-1,1.08c-.35.3-.73.55-1.09.84A3.07,3.07,0,0,0,5.29,33.1a2.46,2.46,0,0,0,.55,1.59c.24.32,1.18.86,1,1.34a1.1,1.1,0,0,1-.09.14c-.85,1-2.54,2.39-2.53,3.82A2.31,2.31,0,0,0,5,41.58a2.72,2.72,0,0,0,2,.79c1.14-.07,2.11-1,3-1.62.26-.2,3.06-2.39,3.1-2.34.55.65,1.11,1.3,1.66,2a10.77,10.77,0,0,1,1.43,1.8,28.41,28.41,0,0,1,1.18,3.11c.44,1.15.87,2.3,1.32,3.45a17.4,17.4,0,0,0,3.71,5.78,29.46,29.46,0,0,0,4.36,3.42,33.53,33.53,0,0,1,4.3,3.5,13.88,13.88,0,0,1,1.16,1.14c.08.09.66,1.34.44,1.31-1.59-.19-3.19-.26-4.76-.52a22.17,22.17,0,0,0-3.44-.44,12.34,12.34,0,0,0-3.47.5,10.94,10.94,0,0,0-3.37,1.83c-.53.39-1.06.78-1.61,1.14-.39.26-1.21.56-1.23,1.11a1.06,1.06,0,0,0,.17.57,2.16,2.16,0,0,0,1,.8,9.85,9.85,0,0,0,11.28-3.22c.32-.43.66-1.08,1.21-1.24a4.65,4.65,0,0,1,1.65.15c2.23.3,4,1,5.17,3.08a6.34,6.34,0,0,1,.47.94c.94,2.45,1.9,4.88,2.82,7.33A22.76,22.76,0,0,1,40.4,83c0,.56,0,1.12,0,1.68,0,.08.22,1.3.4,1.13A5.92,5.92,0,0,0,42,83.22c.85-2.79.69-5.9.87-8.79a24.37,24.37,0,0,1,1-3.92,26.71,26.71,0,0,0,.65-4.44,4.26,4.26,0,0,1,.31-1.63c.4-.78,1.15-.74,1.88-.9a8.94,8.94,0,0,1,3.09-.26,4.46,4.46,0,0,1,2,.8,3.26,3.26,0,0,0,1.87.74A10.4,10.4,0,0,0,56.86,64a10,10,0,0,0,2.46-1.3,4.46,4.46,0,0,0,1.46-1.79A1.53,1.53,0,0,0,59.83,58.68ZM47,13.74a24,24,0,0,1-.16,3.58,3.71,3.71,0,0,1-1.15,1.57,8.43,8.43,0,0,1-1.55-.69,5.65,5.65,0,0,0-1.77-.42c-.4,0-1.73.1-1.85-.46s.3-.9.56-1.22a11,11,0,0,1,1.23-1.32,5,5,0,0,1,1.95-1.32A6,6,0,0,1,47,13.74ZM38.44,7.11a6.77,6.77,0,0,0,2.72,1.32,8,8,0,0,1,3,2.09A4,4,0,0,1,42.57,13a14.34,14.34,0,0,0-3.42,3.3,14,14,0,0,1-.78-2.57A25.64,25.64,0,0,0,37.21,9.3C36.79,8.05,36.87,7.91,38.44,7.11ZM32.66,18a4.7,4.7,0,0,0-1.21.82c-1.22,1.1-2.68,1.08-4.17,1a.88.88,0,0,1-.83-.82A6.27,6.27,0,0,1,27,15.7a3,3,0,0,1,3.29-1.36,35.72,35.72,0,0,1,3.52,1.33c.16.07.24.32.35.48A2.5,2.5,0,0,1,32.66,18Zm2-3a5.64,5.64,0,0,0-1.49-.75L32.46,14a11.15,11.15,0,0,1-2.25-1.28c-.46-.31-.91-.63-1.36-1s-.94-.5-.89-1a2.43,2.43,0,0,1,.43-.94A2.16,2.16,0,0,1,29.28,9a5,5,0,0,0,1.86-1.64c1-1.52,3-.37,3.89.65a7.93,7.93,0,0,1,1.58,2.78A7.78,7.78,0,0,1,37,12.4a2.86,2.86,0,0,1,0,1.59c-.37.74-.81,1.45-1.27,2.25A7.34,7.34,0,0,0,34.63,15Zm.23,3,1.51-.2c.23-.47.5-1,.81-1.66.62,1.58.62,1.58,1.56,2.16.28,2.07-1.21,3.58-1.82,5.66A9.77,9.77,0,0,1,34.86,18ZM1.39,26.33c.9-1.08,1-1.1,2.28-.44C2.37,27.08,2.37,27.08,1.39,26.33Zm21.9,5.8a1.14,1.14,0,0,1,.58,1.42,1.18,1.18,0,0,1-1.15.73,2.9,2.9,0,0,1-.65-.14l-1.26-.39c-.28-.09-.88-.15-1-.41a.47.47,0,0,1,0-.46A2.09,2.09,0,0,1,21,32,2.4,2.4,0,0,1,23.29,32.13ZM9,40.22c-.36.22-.74.39-1.1.59s-.92.58-1.5.38a1.57,1.57,0,0,1-1-1.53,3.21,3.21,0,0,1,1.13-1.81A8.32,8.32,0,0,1,8.5,36.43a3.91,3.91,0,0,1,4,.29A9.53,9.53,0,0,1,9,40.22Zm5.13-4.59A15.57,15.57,0,0,1,12.12,35a10.53,10.53,0,0,0-3.07,0,2.32,2.32,0,0,1-2.54-1.43,1,1,0,0,1,.24-1.32c.75-.6,1.75-.92,2.33-1.72a3.57,3.57,0,0,1,2.33-1.43,10.05,10.05,0,0,1,1.1,1.29,15.31,15.31,0,0,1,1.14,1.51,7.37,7.37,0,0,1,1,3.67A1.09,1.09,0,0,1,14.17,35.63ZM13.92,30a.89.89,0,0,1-.08-.6c.34-1.09.75-2.14,2.06-2.39.86-.16,1.7-.34,2.56-.48a5.7,5.7,0,0,1,1.84-.17c.34.05,1.17.32,1.24.72a.88.88,0,0,1,0,.28,8.26,8.26,0,0,1-.19,2,3.57,3.57,0,0,1-1.26,1.49,20.54,20.54,0,0,0-1.47,1.48c-.52.45-1.1.84-1.65,1.24l-.12.06a.28.28,0,0,1-.15,0c-.25-.13-.77-.28-.9-.55C15.12,32,14.52,31,13.92,30Zm2.89,10.59a3.26,3.26,0,0,1-2-2.32l0,0c.3,0,.8,0,1-.27a.82.82,0,0,0,.12-.6c0-.73-.08-1.45-.13-2.18a3.44,3.44,0,0,0,.91,1.26,3.19,3.19,0,0,0,.92.39C17.83,38.17,17.27,39.28,16.81,40.57Z"/></g></g></svg>